<svg width="308" height="418" viewBox="0 0 308 418" fill="none" xmlns="http://www.w3.org/2000/svg">
<path d="M24 32H308V338C308 382.183 272.183 418 228 418H104C59.8172 418 24 382.183 24 338V32Z" fill="#FF6F77"/>
<path d="M8 17H276V315C276 354.764 243.764 387 204 387H80C40.2355 387 8 354.764 8 315V17Z" stroke="black" stroke-width="16"/>
<path d="M166.296 86.896H180.264V133.552C179.112 133.936 177.432 134.368 175.224 134.848C173.112 135.328 170.616 135.808 167.736 136.288C164.952 136.768 161.88 137.152 158.52 137.44C155.16 137.824 151.752 138.016 148.296 138.016C141.288 138.016 134.904 136.864 129.144 134.56C123.384 132.256 118.44 128.896 114.312 124.48C110.184 120.064 106.968 114.64 104.664 108.208C102.456 101.776 101.352 94.384 101.352 86.032C101.352 77.68 102.6 70.288 105.096 63.856C107.688 57.328 111.144 51.856 115.464 47.44C119.784 43.024 124.824 39.664 130.584 37.36C136.44 35.056 142.68 33.904 149.304 33.904C153.816 33.904 157.8 34.192 161.256 34.768C164.808 35.344 167.832 36.016 170.328 36.784C172.824 37.552 174.84 38.32 176.376 39.088C178.008 39.856 179.112 40.432 179.688 40.816L175.224 52.48C172.44 50.656 168.744 49.168 164.136 48.016C159.528 46.768 154.824 46.144 150.024 46.144C144.936 46.144 140.28 47.056 136.056 48.88C131.928 50.704 128.376 53.344 125.4 56.8C122.52 60.256 120.264 64.48 118.632 69.472C117 74.368 116.184 79.888 116.184 86.032C116.184 91.984 116.856 97.408 118.2 102.304C119.64 107.2 121.752 111.424 124.536 114.976C127.416 118.432 130.92 121.12 135.048 123.04C139.272 124.96 144.216 125.92 149.88 125.92C153.912 125.92 157.32 125.728 160.104 125.344C162.984 124.864 165.048 124.432 166.296 124.048V86.896Z" fill="#FFD540"/>
<path d="M137.04 184.6H160.68V193.96H137.04V222.76C137.04 225.88 137.28 228.48 137.76 230.56C138.24 232.56 138.96 234.16 139.92 235.36C140.88 236.48 142.08 237.28 143.52 237.76C144.96 238.24 146.64 238.48 148.56 238.48C151.92 238.48 154.6 238.12 156.6 237.4C158.68 236.6 160.12 236.04 160.92 235.72L163.08 244.96C161.96 245.52 160 246.2 157.2 247C154.4 247.88 151.2 248.32 147.6 248.32C143.36 248.32 139.84 247.8 137.04 246.76C134.32 245.64 132.12 244 130.44 241.84C128.76 239.68 127.56 237.04 126.84 233.92C126.2 230.72 125.88 227.04 125.88 222.88V167.2L137.04 165.28V184.6Z" fill="white"/>
<path d="M137.04 298.6H160.68V307.96H137.04V336.76C137.04 339.88 137.28 342.48 137.76 344.56C138.24 346.56 138.96 348.16 139.92 349.36C140.88 350.48 142.08 351.28 143.52 351.76C144.96 352.24 146.64 352.48 148.56 352.48C151.92 352.48 154.6 352.12 156.6 351.4C158.68 350.6 160.12 350.04 160.92 349.72L163.08 358.96C161.96 359.52 160 360.2 157.2 361C154.4 361.88 151.2 362.32 147.6 362.32C143.36 362.32 139.84 361.8 137.04 360.76C134.32 359.64 132.12 358 130.44 355.84C128.76 353.68 127.56 351.04 126.84 347.92C126.2 344.72 125.88 341.04 125.88 336.88V281.2L137.04 279.28V298.6Z" fill="white"/>
</svg>
